<?xml version="1.0" encoding="utf-8"?>
<!-- Svg Vector Icons : http://www.onlinewebfonts.com/icon -->
<!DOCTYPE svg PUBLIC "-//W3C//DTD SVG 1.1//EN" "http://www.w3.org/Graphics/SVG/1.1/DTD/svg11.dtd">
<svg version="1.1" xmlns="http://www.w3.org/2000/svg" xmlns:xlink="http://www.w3.org/1999/xlink" x="0px" y="0px" viewBox="0 0 256 256" enable-background="new 0 0 256 256" xml:space="preserve">
<metadata> Svg Vector Icons : http://www.onlinewebfonts.com/icon </metadata>
<g><g><path fill="#6bb463" d="M193.2,163.5c-18.3-14.8-39.7-23.6-65-23.6c-58.8,0-106.4,47.6-106.4,106.4H10c0-54.7,37.2-100.6,87.6-114.1c-20.5-11-34.4-32.5-34.4-57.4c0-35.9,29.1-65,65-65c35.9,0,65,29.1,65,65c0,24.8-13.9,46.4-34.4,57.4c20.6,5.5,37.6,16.5,52.1,31.3L193.2,163.5L193.2,163.5z M181.4,74.8c0-29.4-23.8-53.2-53.2-53.2C98.9,21.6,75,45.4,75,74.8c0,29.4,23.8,53.2,53.2,53.2S181.4,104.2,181.4,74.8z"/><path fill="#6bb463" transform="translate(-50, -50) scale(1.25)" d="M244.4,179.6c-0.9-0.8-2.1-1.3-3.3-1.3c-0.1,0-0.2,0-0.3,0c-0.1,0-0.9,0-2.1,0c-2,0-6-0.1-9.8-1c-4.9-1.2-10.5-6.6-12.1-7.7c-0.8-0.5-1.8-0.8-2.7-0.8s-1.9,0.3-2.7,0.8c-0.2,0.1-6.1,6.3-11.8,7.7c-3.8,0.9-7.8,1-9.9,1c-1.2,0-2,0-2.1,0c-0.1,0-0.2,0-0.3,0c-1.2,0-2.4,0.5-3.3,1.3c-1,0.9-1.6,2.2-1.6,3.5v12c0,44.3,29.7,50,30.9,50.2c0.3,0,0.6,0.1,0.9,0.1c0.3,0,0.6,0,0.9-0.1c1.3-0.2,31.1-5.9,31.1-50.2v-12C246,181.7,245.4,180.5,244.4,179.6z M213.2,212.5L213.2,212.5l-3.1,2.9l-11-11.9l3.2-2.8l8.1,8.7l17.3-16l2.9,3.1L213.2,212.5z"/></g></g>
</svg>