<?xml version="1.0" encoding="utf-8"?>
<!-- Svg Vector Icons : http://www.onlinewebfonts.com/icon -->
<!DOCTYPE svg PUBLIC "-//W3C//DTD SVG 1.1//EN" "http://www.w3.org/Graphics/SVG/1.1/DTD/svg11.dtd">
<svg version="1.1" xmlns="http://www.w3.org/2000/svg" xmlns:xlink="http://www.w3.org/1999/xlink" x="0px" y="0px" viewBox="0 0 256 256" enable-background="new 0 0 256 256" xml:space="preserve">
<metadata> Svg Vector Icons : http://www.onlinewebfonts.com/icon </metadata>
<g><g><g><path fill="#6bb463" d="M31.9,10.6c-2.3,0.7-4.9,3.6-5.7,5.9c-0.4,1.5-0.6,26.5-0.6,111.8v109.8l1.3,2.6c1.1,2.2,1.7,2.8,3.9,3.9l2.6,1.3h66.7H167l2.6-1.3c2.2-1.1,2.8-1.7,3.9-3.9l1.3-2.6v-33v-33l-3,0.6c-1.7,0.4-4.4,0.8-6,1l-3,0.3v20.1v20.1h-62.6H37.7v-92.6V29.2h62.6h62.6v4.9v4.9l4.5,0.6c2.4,0.3,5.1,0.8,6,0.9l1.5,0.2V29.3V17.9l-1.3-2.6c-1.1-2.2-1.8-2.8-3.9-3.9L167,10l-66.7,0C53.2,10.1,33.1,10.2,31.9,10.6z M114.9,19.6v3.4h-14.4H86.1v-3.4v-3.4h14.4h14.4V19.6z M104.3,223c6.3,3.2,6.3,12.2,0,15.3c-2.6,1.2-4.8,1.2-7.3,0.1c-3.5-1.6-5-4.1-5-8c0-2.5,0.8-4.2,2.7-6C97.2,221.9,101.1,221.3,104.3,223z"/><path fill="#6bb463" d="M134.8,46.9c-10.8,1.7-18.6,4.1-28.3,8.9C86.8,65.6,74,81.1,71,99.2c-3.1,18.9,5.6,37.7,23.7,51.1c3.1,2.3,4.3,3.5,4.2,4c-0.4,1.2-5.6,22.1-5.6,22.3c0,0.1,7.8-2.4,17.4-5.6l17.4-5.9l4.8,0.9c7.4,1.4,22.3,1.7,30.5,0.6c29-3.6,52.3-18.3,62.4-39.3c3.6-7.6,4.5-11.5,4.5-20.6c0-9-0.8-12.9-4.3-20.3c-2.9-6-5.7-10.1-10.4-15.1c-12.2-13-31.6-22.2-52.7-24.8C156.4,45.7,141.5,45.9,134.8,46.9z M167.1,57.4c15.6,3,30.5,10.5,39.6,20.2c8.2,8.7,12.3,18.4,12.3,29.2c0,26.9-28.6,48.9-65.3,50.3c-46,1.8-81.4-30-70-63.1c2.2-6.3,5.4-11.1,11.1-16.9C105.7,66,119.9,59.4,138,56.8C144.8,55.8,160.2,56.1,167.1,57.4z"/><path fill="#6bb463" d="M114.6,93.9c-5,1.1-7.8,4.1-7.8,8.4c0,3.5,2.4,6,7.3,7.9c4,1.5,5.1,2.9,3.4,4.5c-1,1-5,1-7.6,0c-1.1-0.4-2.1-0.7-2.2-0.7c-0.3,0-1.4,3.8-1.4,5c0,1.1,4.3,2.2,8.1,2.2c7.4,0,11.6-3,11.6-8.4c0-4.1-1.9-6.1-7.8-8.6c-3.7-1.5-4.6-2.8-2.8-4.2c1.2-1,3.4-1.1,6-0.1c1.1,0.4,2,0.7,2,0.7c0,0,0.3-0.9,0.6-2.1c0.3-1.1,0.6-2.4,0.8-2.8c0.2-0.6-0.2-0.9-1.6-1.3C120.4,93.7,116.8,93.5,114.6,93.9z"/><path fill="#6bb463" d="M144.3,93.9c-1.9,0.5-3.9,1.7-5,3.1c-0.8,1-0.8,1-1.1-0.8l-0.3-1.8h-3.3h-3.3v13.2v13.2h4.1h4.1v-8.9V103l1.4-1.4c2.4-2.3,5.3-1.5,6.3,1.9c0.2,1,0.5,5.3,0.5,9.5v7.8h3.8h3.8V113c0-4.3,0.2-8.5,0.5-9.5c1.1-3.7,5.3-4.5,7-1.3c0.6,1,0.7,3.4,0.7,10v8.6h4.1h4.1v-9.3c0-9.7-0.3-11.7-2.1-14.3c-1.6-2.3-3.8-3.5-7-3.5c-3,0-4.9,0.8-7.1,3l-1.5,1.5l-0.6-1.2C152,94.6,147.7,93.1,144.3,93.9z"/><path fill="#6bb463" d="M185.4,93.9c-4.8,1-7.8,4.1-7.9,8.1c0,3.5,1.4,5.5,5.4,7.3c1.8,0.9,3.7,1.8,4.4,2.1c1.3,0.6,1.8,2.4,1,3.5c-0.8,0.9-5,0.9-7.7,0c-1.1-0.4-2.2-0.6-2.3-0.4c-0.3,0.3-1.4,4.4-1.4,5.1c0,0.1,1.2,0.6,2.7,1.1c1.9,0.6,3.9,0.7,6.9,0.6c5.2-0.2,8-1.6,9.5-4.8c1.3-2.6,1.3-4.4,0-7.1c-1.1-2.1-2.2-2.9-7.8-5.4c-1.9-0.9-2.4-1.3-2.5-2.4c-0.2-2,1.5-2.6,4.8-2c1.4,0.3,2.8,0.7,3.3,0.9c0.6,0.2,0.9-0.2,1.3-2.2c0.3-1.4,0.6-2.6,0.6-2.9C195.5,94.3,188.4,93.3,185.4,93.9z"/></g></g></g>
</svg>